<?xml version="1.0" encoding="UTF-8"?> <svg xmlns="http://www.w3.org/2000/svg" id="Calque_1" data-name="Calque 1" viewBox="0 0 497.96 163.19"><defs><style>.cls-1{fill:#12214d;}</style></defs><g id="Layer_2" data-name="Layer 2"><g id="Layer_1-2" data-name="Layer 1-2"><g id="quarkslab"><g id="quarkslab_logo" data-name="quarkslab logo"><path class="cls-1" d="M108.81,47a2.67,2.67,0,0,1,2.58-2.57h7.74A2.67,2.67,0,0,1,121.71,47V74.77c0,8.82,4.21,13.57,11.14,13.57,8,0,13-6.52,13.44-9V47c0-2.17,1.09-2.57,3-2.57h7.06A2.66,2.66,0,0,1,158.92,47V96.07a2.67,2.67,0,0,1-2.58,2.57h-3.8c-1.36,0-2-1-2.44-2.17l-1.36-3.93A24.59,24.59,0,0,1,130.81,100c-16.3,0-22-11.53-22-25.63Z" transform="translate(-0.04 -0.91)"></path><path class="cls-1" d="M188.93,64.33A39.38,39.38,0,0,1,199.66,66c.14-8.54-1.49-11.93-8.42-11.93A57.9,57.9,0,0,0,176,56.46c-1.63.41-2.58-.68-3-2.17l-1.08-5a2.44,2.44,0,0,1,1.58-3.07l.18,0A56.13,56.13,0,0,1,192.46,43c17.39,0,19,10.58,19,24.15V96.07a2.67,2.67,0,0,1-2.58,2.57h-3.81c-1.22,0-1.76-.54-2.31-1.89l-1.35-3.67A23.5,23.5,0,0,1,184.72,100c-10.18,0-17.52-6.92-17.52-18.18C167.2,71.92,175.08,64.33,188.93,64.33Zm-1.63,26c5.43,0,10.6-4.07,12.22-6.78V74.91a20.46,20.46,0,0,0-9.5-2.17c-6.52,0-11,3.39-11,9,0,4.83,3.26,8.63,8.28,8.63Z" transform="translate(-0.04 -0.91)"></path><path class="cls-1" d="M221.68,47a2.67,2.67,0,0,1,2.58-2.57h3.94a2.58,2.58,0,0,1,2.31,1.9L232,50.9A19.37,19.37,0,0,1,247.89,43c5.16,0,11.41,1.36,9.92,5l-3.26,6.65a2.31,2.31,0,0,1-3,1.34,1.31,1.31,0,0,1-.27-.12,12.25,12.25,0,0,0-4.62-1,14.27,14.27,0,0,0-12.22,6.65V96.07c0,2.3-1.5,2.57-3.67,2.57h-6.52a2.67,2.67,0,0,1-2.58-2.57Z" transform="translate(-0.04 -0.91)"></path><path class="cls-1" d="M263.35,11.92a2.67,2.67,0,0,1,2.58-2.57h7.87a2.67,2.67,0,0,1,2.58,2.57V65l21.19-19A5.34,5.34,0,0,1,301,44.39h9.51A2.1,2.1,0,0,1,312,48.05L289.42,68.53,316,95.12a2,2,0,0,1-1.49,3.52h-11.1A3.5,3.5,0,0,1,301,97.56L276.38,72.33V96.07a2.67,2.67,0,0,1-2.58,2.57h-7.87a2.67,2.67,0,0,1-2.58-2.57Z" transform="translate(-0.04 -0.91)"></path><path class="cls-1" d="M321.6,91.59l2.85-5.29a2.36,2.36,0,0,1,3.24-.78l.16.1a28,28,0,0,0,12.63,3.53c4.07,0,6.65-1.63,6.65-4.61,0-3.66-3-5.43-10.46-8.82-8.42-3.66-15.48-8.82-15.48-17.77,0-6.78,5.57-14.92,18.61-14.92a30.38,30.38,0,0,1,16,4.21,3,3,0,0,1,1.09,3.93l-2.44,4.61a2.87,2.87,0,0,1-3.54,1.09S345,54,339.8,54c-4.62,0-6.11,2-6.11,4.07,0,3.53,3.39,5,8.69,7.32,9.91,4.34,18.06,8.55,18.06,18.72,0,8.41-8,15.87-20.1,15.87-9.1,0-15.07-3.25-17.93-5.56A2.29,2.29,0,0,1,321.6,91.59Z" transform="translate(-0.04 -0.91)"></path><path class="cls-1" d="M368,11.92a2.67,2.67,0,0,1,2.58-2.57h7.74a2.67,2.67,0,0,1,2.58,2.57V96.07a2.67,2.67,0,0,1-2.58,2.57h-7.74A2.67,2.67,0,0,1,368,96.07Z" transform="translate(-0.04 -0.91)"></path><path class="cls-1" d="M411,64.33A39.09,39.09,0,0,1,421.68,66c.14-8.54-1.49-11.93-8.42-11.93a57.67,57.67,0,0,0-15.21,2.44c-1.63.41-2.58-.68-3-2.17l-1.08-5a2.44,2.44,0,0,1,1.58-3.07l.18-.05A56.21,56.21,0,0,1,414.48,43c17.39,0,19,10.58,19,24.15V96.07a2.67,2.67,0,0,1-2.58,2.57h-3.81c-1.22,0-1.76-.54-2.3-1.89l-1.36-3.67A23.5,23.5,0,0,1,406.74,100c-10.18,0-17.52-6.92-17.52-18.18C389.22,71.92,397.1,64.33,411,64.33Zm-1.63,26c5.43,0,10.6-4.07,12.22-6.78V74.91a20.46,20.46,0,0,0-9.5-2.17c-6.52,0-11,3.39-11,9-.09,4.83,3.21,8.63,8.23,8.63Z" transform="translate(-0.04 -0.91)"></path><path class="cls-1" d="M445.17,11.92a2.67,2.67,0,0,1,2.58-2.57h7.88a2.67,2.67,0,0,1,2.58,2.57V46a32.65,32.65,0,0,1,13-3C486.32,43,498,55.65,498,71.52c0,15.6-11,28.48-25.4,28.48a24.28,24.28,0,0,1-17.24-7.6l-1.09,3.94c-.41,1.35-1.22,2.3-2.45,2.3h-4.07a2.67,2.67,0,0,1-2.58-2.57ZM471,88.34c8.7,0,14.4-7.74,14.4-16.82S479,54.83,469.89,54.83A23.28,23.28,0,0,0,458.07,58V80.2C458.75,81.69,462.69,88.34,471,88.34Z" transform="translate(-0.04 -0.91)"></path><path class="cls-1" d="M87.56,82.28,90,78.78a49.46,49.46,0,1,0-15.88,14.5l3.7-2.13,1.64,1.7A18.51,18.51,0,0,0,100,97.23ZM49.59,88A38.07,38.07,0,1,1,87.4,49.67v.25A38,38,0,0,1,49.59,88Z" transform="translate(-0.04 -0.91)"></path></g></g></g></g><path class="cls-1" d="M3,153.38,4.84,151a10.39,10.39,0,0,0,7.77,3.52c4.4,0,5.81-2.37,5.81-4.26,0-6.36-14.62-2.84-14.62-11.65,0-4.07,3.63-6.85,8.47-6.85A11.6,11.6,0,0,1,21,135.24l-1.85,2.26a9.46,9.46,0,0,0-7.14-3c-3,0-5.07,1.59-5.07,3.92C7,144,21.6,140.83,21.6,150c0,3.59-2.44,7.26-9.1,7.26A12.25,12.25,0,0,1,3,153.38Z" transform="translate(-0.04 -0.91)"></path><path class="cls-1" d="M25,147.9c0-5.18,3.7-9.36,8.81-9.36,5.4,0,8.58,4.22,8.58,9.58v.7H28A6.3,6.3,0,0,0,34.4,155a7.79,7.79,0,0,0,5.51-2.25l1.34,1.81a9.72,9.72,0,0,1-7.11,2.74C28.85,157.3,25,153.49,25,147.9Zm8.77-7.07c-3.81,0-5.7,3.22-5.85,6H39.69A5.79,5.79,0,0,0,33.81,140.83Z" transform="translate(-0.04 -0.91)"></path><path class="cls-1" d="M45.87,147.9c0-5.29,3.59-9.36,8.92-9.36a7.65,7.65,0,0,1,6.55,3.11l-1.85,1.7A5.32,5.32,0,0,0,54.93,141c-3.81,0-6.17,2.92-6.17,6.88s2.36,6.92,6.17,6.92a5.41,5.41,0,0,0,4.56-2.33l1.85,1.7a7.65,7.65,0,0,1-6.55,3.11C49.46,157.3,45.87,153.23,45.87,147.9Z" transform="translate(-0.04 -0.91)"></path><path class="cls-1" d="M77.28,156.85v-2.51a8.76,8.76,0,0,1-6.36,3c-3.74,0-5.7-1.82-5.7-5.7V139H68v11.77c0,3.14,1.59,4.07,4,4.07a6.84,6.84,0,0,0,5.29-2.7V139h2.78v17.87Z" transform="translate(-0.04 -0.91)"></path><path class="cls-1" d="M85.61,156.85V139h2.77v2.89a7.61,7.61,0,0,1,6-3.26v2.85a5.14,5.14,0,0,0-1.11-.11,6.57,6.57,0,0,0-4.85,2.85v12.65Z" transform="translate(-0.04 -0.91)"></path><path class="cls-1" d="M97.33,134.58a1.87,1.87,0,1,1,3.74,0,1.87,1.87,0,0,1-3.74,0Zm.49,22.27V139h2.77v17.87Z" transform="translate(-0.04 -0.91)"></path><path class="cls-1" d="M118.2,156.85V145.16c0-3.14-1.59-4.14-4-4.14a6.88,6.88,0,0,0-5.29,2.77v13.06h-2.78V139h2.78v2.59a8.84,8.84,0,0,1,6.36-3c3.74,0,5.7,1.88,5.7,5.77v12.54Z" transform="translate(-0.04 -0.91)"></path><path class="cls-1" d="M126.49,161.44l1.41-2.07a6.81,6.81,0,0,0,5.81,2.44c3,0,5.73-1.44,5.73-5.36v-2.56a7.45,7.45,0,0,1-6,3.19c-4.67,0-8-3.48-8-9.25s3.26-9.29,8-9.29a7.4,7.4,0,0,1,6,3.14V139h2.78v17.36c0,5.92-4.15,7.77-8.51,7.77C130.67,164.11,128.6,163.51,126.49,161.44Zm13-9.73V143.9a6.59,6.59,0,0,0-5.33-2.88c-3.59,0-5.73,2.85-5.73,6.81s2.14,6.8,5.73,6.8A6.62,6.62,0,0,0,139.44,151.71Z" transform="translate(-0.04 -0.91)"></path><path class="cls-1" d="M156.28,147.9c0-5.18,3.7-9.36,8.8-9.36,5.4,0,8.59,4.22,8.59,9.58v.7H159.2a6.3,6.3,0,0,0,6.44,6.18,7.83,7.83,0,0,0,5.51-2.25l1.33,1.81a9.68,9.68,0,0,1-7.1,2.74C160.09,157.3,156.28,153.49,156.28,147.9Zm8.76-7.07c-3.81,0-5.69,3.22-5.84,6h11.73A5.79,5.79,0,0,0,165,140.83Z" transform="translate(-0.04 -0.91)"></path><path class="cls-1" d="M182.92,156.85,175.48,139h3l6,14.65L190.35,139h3L186,156.85Z" transform="translate(-0.04 -0.91)"></path><path class="cls-1" d="M195.24,147.9c0-5.18,3.7-9.36,8.8-9.36,5.4,0,8.59,4.22,8.59,9.58v.7H198.16A6.3,6.3,0,0,0,204.6,155a7.83,7.83,0,0,0,5.51-2.25l1.33,1.81a9.68,9.68,0,0,1-7.1,2.74C199.05,157.3,195.24,153.49,195.24,147.9Zm8.76-7.07c-3.81,0-5.69,3.22-5.84,6h11.73A5.79,5.79,0,0,0,204,140.83Z" transform="translate(-0.04 -0.91)"></path><path class="cls-1" d="M217.1,156.85V139h2.78v2.89a7.58,7.58,0,0,1,6-3.26v2.85a5.08,5.08,0,0,0-1.11-.11,6.53,6.53,0,0,0-4.84,2.85v12.65Z" transform="translate(-0.04 -0.91)"></path><path class="cls-1" d="M228.76,161.33a4.11,4.11,0,0,0,1.51.3,2.58,2.58,0,0,0,2.67-1.89l1.18-2.7L226.65,139h3l6,14.65L241.52,139h3l-9,21.5a5.31,5.31,0,0,1-5.25,3.63,9,9,0,0,1-2-.26Z" transform="translate(-0.04 -0.91)"></path><path class="cls-1" d="M257,156.85V132.17h2.77v9.51a7.43,7.43,0,0,1,6-3.14c4.67,0,8,3.7,8,9.4s-3.29,9.36-8,9.36a7.54,7.54,0,0,1-6-3.11v2.66Zm8.1-2c3.63,0,5.77-2.92,5.77-6.88s-2.14-6.92-5.77-6.92a6.65,6.65,0,0,0-5.33,2.88V152A6.59,6.59,0,0,0,265.09,154.82Z" transform="translate(-0.04 -0.91)"></path><path class="cls-1" d="M277.78,134.58a1.87,1.87,0,1,1,3.74,0,1.87,1.87,0,0,1-3.74,0Zm.48,22.27V139H281v17.87Z" transform="translate(-0.04 -0.91)"></path><path class="cls-1" d="M287.14,153.12v-11.7h-3V139h3V134.1h2.78V139h3.62v2.44h-3.62v11.1c0,1.34.59,2.3,1.81,2.3a2.67,2.67,0,0,0,1.89-.74l.81,2.07a4.51,4.51,0,0,1-3.33,1.15C288.47,157.3,287.14,155.78,287.14,153.12Z" transform="translate(-0.04 -0.91)"></path><path class="cls-1" d="M306,147.9c0-5.18,3.41-9.36,8.85-9.36s8.84,4.18,8.84,9.36-3.4,9.4-8.84,9.4S306,153.08,306,147.9Zm14.77,0c0-3.63-2.11-6.88-5.92-6.88s-6,3.25-6,6.88,2.15,6.92,6,6.92S320.74,151.56,320.74,147.9Z" transform="translate(-0.04 -0.91)"></path><path class="cls-1" d="M329,156.85V141.42h-3V139h3v-1.37c0-3.66,2-5.81,5.18-5.81a5.25,5.25,0,0,1,3.78,1.37L336.76,135a3.26,3.26,0,0,0-2.22-.89c-1.82,0-2.81,1.26-2.81,3.51V139h3.62v2.44h-3.62v15.43Z" transform="translate(-0.04 -0.91)"></path><path class="cls-1" d="M347.63,161.33a4.2,4.2,0,0,0,1.52.3,2.58,2.58,0,0,0,2.67-1.89L353,157,345.53,139h3l6,14.65L360.4,139h3l-9,21.5a5.32,5.32,0,0,1-5.25,3.63,8.9,8.9,0,0,1-2-.26Z" transform="translate(-0.04 -0.91)"></path><path class="cls-1" d="M365.28,147.9c0-5.18,3.41-9.36,8.85-9.36s8.84,4.18,8.84,9.36-3.4,9.4-8.84,9.4S365.28,153.08,365.28,147.9Zm14.77,0c0-3.63-2.11-6.88-5.92-6.88s-6,3.25-6,6.88,2.15,6.92,6,6.92S380.05,151.56,380.05,147.9Z" transform="translate(-0.04 -0.91)"></path><path class="cls-1" d="M399.55,156.85v-2.51a8.76,8.76,0,0,1-6.37,3c-3.73,0-5.7-1.82-5.7-5.7V139h2.78v11.77c0,3.14,1.59,4.07,4,4.07a6.85,6.85,0,0,0,5.29-2.7V139h2.77v17.87Z" transform="translate(-0.04 -0.91)"></path><path class="cls-1" d="M407.87,156.85V139h2.78v2.89a7.58,7.58,0,0,1,6-3.26v2.85a5.08,5.08,0,0,0-1.11-.11,6.53,6.53,0,0,0-4.84,2.85v12.65Z" transform="translate(-0.04 -0.91)"></path><path class="cls-1" d="M442.58,156.85v-2.66a7.54,7.54,0,0,1-6,3.11c-4.67,0-8-3.55-8-9.36s3.26-9.4,8-9.4a7.48,7.48,0,0,1,6,3.14v-9.51h2.77v24.68Zm0-4.84V143.9a6.73,6.73,0,0,0-5.37-2.88c-3.59,0-5.73,3-5.73,6.92s2.14,6.88,5.73,6.88A6.67,6.67,0,0,0,442.58,152Z" transform="translate(-0.04 -0.91)"></path><path class="cls-1" d="M462.08,156.85v-2a7.73,7.73,0,0,1-5.92,2.48c-3,0-6.26-2-6.26-5.92s3.22-5.89,6.26-5.89a7.47,7.47,0,0,1,5.92,2.45v-3.22c0-2.41-1.93-3.78-4.52-3.78a7.14,7.14,0,0,0-5.48,2.48l-1.29-1.92a9.34,9.34,0,0,1,7.14-3c3.78,0,6.92,1.7,6.92,6v12.28Zm0-3.77v-3.37a6,6,0,0,0-4.93-2.22c-2.59,0-4.4,1.63-4.4,3.92s1.81,3.89,4.4,3.89A6,6,0,0,0,462.08,153.08Z" transform="translate(-0.04 -0.91)"></path><path class="cls-1" d="M471,153.12v-11.7h-3V139h3V134.1h2.77V139h3.63v2.44h-3.63v11.1c0,1.34.59,2.3,1.81,2.3a2.67,2.67,0,0,0,1.89-.74l.82,2.07a4.55,4.55,0,0,1-3.34,1.15C472.29,157.3,471,155.78,471,153.12Z" transform="translate(-0.04 -0.91)"></path><path class="cls-1" d="M492.45,156.85v-2a7.72,7.72,0,0,1-5.92,2.48c-3,0-6.25-2-6.25-5.92s3.22-5.89,6.25-5.89a7.46,7.46,0,0,1,5.92,2.45v-3.22c0-2.41-1.92-3.78-4.51-3.78a7.11,7.11,0,0,0-5.48,2.48l-1.29-1.92a9.34,9.34,0,0,1,7.14-3c3.77,0,6.92,1.7,6.92,6v12.28Zm0-3.77v-3.37a6,6,0,0,0-4.92-2.22c-2.59,0-4.4,1.63-4.4,3.92s1.81,3.89,4.4,3.89A6,6,0,0,0,492.45,153.08Z" transform="translate(-0.04 -0.91)"></path></svg> 