<?xml version="1.0" encoding="UTF-8" standalone="no"?>
<!-- Created with Inkscape (http://www.inkscape.org/) -->

<svg
   version="1.1"
   id="svg2"
   xml:space="preserve"
   width="529.1333"
   height="151.18134"
   viewBox="0 0 529.1333 151.18134"
   sodipodi:docname="QUARKSLAB_LOGO 2022_RVB.ai"
   xmlns:inkscape="http://www.inkscape.org/namespaces/inkscape"
   xmlns:sodipodi="http://sodipodi.sourceforge.net/DTD/sodipodi-0.dtd"
   xmlns="http://www.w3.org/2000/svg"
   xmlns:svg="http://www.w3.org/2000/svg"><defs
     id="defs6"><clipPath
       clipPathUnits="userSpaceOnUse"
       id="clipPath16"><path
         d="M 28.533,28.673 H 323.971 V 95.389 H 28.533 Z"
         id="path14" /></clipPath></defs><sodipodi:namedview
     id="namedview4"
     pagecolor="#ffffff"
     bordercolor="#666666"
     borderopacity="1.0"
     inkscape:pageshadow="2"
     inkscape:pageopacity="0.0"
     inkscape:pagecheckerboard="0" /><g
     id="g8"
     inkscape:groupmode="layer"
     inkscape:label="QUARKSLAB_LOGO 2022_RVB"
     transform="matrix(1.3333333,0,0,-1.3333333,0,151.18133)"><g
       id="g10"><g
         id="g12"
         clip-path="url(#clipPath16)"><g
           id="g18"
           transform="translate(109.0405,36.7321)"><path
             d="M 0,0 C -1.014,1.186 -1.52,2.954 -1.52,5.306 V 23.643 H -7.754 V 5.094 c 0,-4.461 1.206,-7.603 3.618,-9.427 2.413,-1.825 5.818,-2.737 10.218,-2.737 4.419,0 7.83,0.912 10.232,2.737 2.403,1.824 3.604,4.966 3.604,9.427 V 23.643 H 13.684 V 5.306 C 13.684,2.954 13.177,1.186 12.164,0 11.15,-1.186 9.133,-1.779 6.112,-1.779 3.051,-1.779 1.013,-1.186 0,0 m 45.37,3.695 c 0,-1.724 -0.775,-3.072 -2.326,-4.045 -1.551,-0.973 -3.746,-1.459 -6.584,-1.459 -1.845,0 -3.274,0.435 -4.287,1.307 -1.014,0.872 -1.521,1.916 -1.521,3.132 0,1.399 0.664,2.514 1.992,3.345 1.328,0.831 3.553,1.247 6.675,1.247 h 6.051 z m 0,-10.461 h 6.234 v 19.462 c 0,3.649 -1.155,6.436 -3.467,8.362 -2.311,1.926 -5.868,2.889 -10.673,2.889 -3.305,0 -6.64,-0.334 -10.005,-1.003 v -4.653 c 4.034,0.243 7.359,0.365 9.975,0.365 2.858,0 4.895,-0.537 6.112,-1.612 1.216,-1.075 1.824,-2.412 1.824,-4.014 V 11.814 H 39.288 C 34.443,11.793 30.753,10.967 28.22,9.336 25.685,7.703 24.418,5.266 24.418,2.022 c 0,-2.838 1.105,-5.068 3.315,-6.69 2.209,-1.622 5.21,-2.433 9.001,-2.433 3.548,0 6.426,0.811 8.636,2.433 z m 21.043,25.118 h 8.424 v 4.683 c -3.447,0.405 -6.589,0.608 -9.427,0.608 -5.271,0 -7.907,-2.027 -7.907,-6.082 V -6.766 h 6.234 v 22.594 c 0,1.682 0.892,2.524 2.676,2.524 M 87.487,6.827 98.495,-6.766 h 7.632 L 92.656,10.02 104.06,23.643 H 96.731 L 87.7,12.361 H 84.689 V 37.023 H 78.455 V -6.766 h 6.234 V 6.827 Z m 38.406,-2.691 c 1.318,-0.619 1.977,-1.425 1.977,-2.418 0,-1.216 -0.507,-2.109 -1.521,-2.676 -1.013,-0.568 -2.747,-0.851 -5.199,-0.851 -2.616,0 -6.549,0.223 -11.799,0.669 v -4.653 c 4.581,-0.872 8.524,-1.308 11.829,-1.308 4.399,0 7.653,0.71 9.761,2.129 2.108,1.419 3.163,3.649 3.163,6.69 0,2.838 -1.055,4.967 -3.163,6.386 -2.108,1.419 -4.642,2.387 -7.602,2.904 -2.96,0.517 -5.094,1.084 -6.401,1.703 -1.308,0.618 -1.962,1.434 -1.962,2.448 0,1.196 0.507,2.078 1.521,2.645 1.013,0.568 2.747,0.852 5.2,0.852 2.615,0 6.345,-0.223 11.19,-0.669 v 4.653 c -4.176,0.871 -7.916,1.307 -11.221,1.307 -4.399,0 -7.653,-0.71 -9.761,-2.129 -2.109,-1.419 -3.162,-3.649 -3.162,-6.69 0,-2.838 1.053,-4.967 3.162,-6.385 2.108,-1.42 4.638,-2.388 7.587,-2.904 2.95,-0.517 5.083,-1.085 6.401,-1.703 m 13.015,-4.82 c 0,-4.257 2.331,-6.386 6.994,-6.386 1.419,0 2.838,0.203 4.258,0.608 v 4.683 h -2.342 c -1.784,0 -2.676,0.943 -2.676,2.828 v 35.944 h -6.234 z m 34.697,4.379 c 0,-1.724 -0.775,-3.072 -2.326,-4.045 -1.551,-0.973 -3.746,-1.459 -6.584,-1.459 -1.845,0 -3.274,0.435 -4.287,1.307 -1.014,0.872 -1.521,1.916 -1.521,3.132 0,1.399 0.664,2.514 1.992,3.345 1.327,0.831 3.553,1.247 6.675,1.247 h 6.051 z m 0,-10.461 h 6.234 v 19.462 c 0,3.649 -1.156,6.436 -3.467,8.362 -2.311,1.926 -5.869,2.889 -10.673,2.889 -3.305,0 -6.64,-0.334 -10.005,-1.003 v -4.653 c 4.034,0.243 7.359,0.365 9.974,0.365 2.859,0 4.896,-0.537 6.113,-1.612 1.216,-1.075 1.824,-2.412 1.824,-4.014 v -1.216 h -6.082 c -4.845,-0.021 -8.535,-0.847 -11.069,-2.478 -2.534,-1.633 -3.801,-4.07 -3.801,-7.314 0,-2.838 1.105,-5.068 3.315,-6.69 2.209,-1.622 5.21,-2.433 9.001,-2.433 3.547,0 6.426,0.811 8.636,2.433 z m 18.063,15.052 c 0,3.954 0.659,6.675 1.977,8.165 1.317,1.49 3.486,2.235 6.507,2.235 3.061,0 5.25,-0.897 6.568,-2.691 1.318,-1.794 1.977,-4.364 1.977,-7.709 0,-3.325 -0.659,-5.828 -1.977,-7.511 -1.318,-1.683 -3.507,-2.524 -6.568,-2.524 -3.021,0 -5.19,0.841 -6.507,2.524 -1.318,1.683 -1.977,4.186 -1.977,7.511 m 0,28.737 h -6.234 V 8.317 c 0,-5.17 1.353,-9.022 4.06,-11.556 2.706,-2.534 6.269,-3.801 10.689,-3.801 4.398,0 7.956,1.267 10.673,3.801 2.717,2.534 4.075,6.386 4.075,11.556 0,5.169 -1.257,9.072 -3.771,11.707 -2.514,2.635 -5.869,3.954 -10.065,3.954 -4.339,0 -7.481,-1.045 -9.427,-3.133 z"
             style="fill:#24305a;fill-opacity:1;fill-rule:nonzero;stroke:none"
             id="path20" /></g><g
           id="g22"
           transform="translate(89.2016,42.8757)"><path
             d="m 0,0 c 10.578,15.082 6.928,35.885 -8.155,46.463 -15.082,10.579 -35.885,6.928 -46.463,-8.155 -10.579,-15.082 -6.928,-35.884 8.155,-46.463 10.594,-7.43 24.529,-8.063 35.753,-1.624 l 2.496,1.436 1.106,-1.146 c 3.559,-3.761 9.069,-4.936 13.852,-2.954 l -8.39,10.082 z M -0.807,19.156 C -0.807,4.71 -12.517,-7 -26.962,-7 c -14.445,0 -26.156,11.71 -26.156,26.156 0,14.445 11.711,26.155 26.156,26.155 14.445,0 26.155,-11.71 26.155,-26.155"
             style="fill:#24305a;fill-opacity:1;fill-rule:nonzero;stroke:none"
             id="path24" /></g></g></g></g></svg>
